REM DIRINDEX 1\2\4\18,1\2\4\19,1\2\5\20,1\2\5\21,1\2\6\22,1\2\7\23,1\2\8\24,1\2\8\25,1\2\9\26,1\2\10\27,1\3\11\28,1\3\11\29,1\3\11\30,1\3\11\31,1\3\12\32,1\3\12\33,1\3\12\34,1\3\12\35,1\3\13\36,1\3\13\37,1\3\14\38,1\3\14\39,1\3\15\40,1\3\15\41,1\3\15\42,1\3\16\43,1\3\16\44,1\3\17\45,1\3\17\46
REM DIRNAME cjc023,folder01,folder02,folder03,folder04,folder05,folder06,folder07,folder08,folder09,folder10,folder11,folder12,folder13,folder14,folder15,folder16,folder17,folder18,folder19,folder20,folder21,folder22,folder23,folder24,folder25,folder26,folder27,folder28,folder29,folder30,folder31,folder32,folder33,folder34,folder35,folder36,folder37,folder38,folder39,folder40,folder41,folder42,folder43,folder44,folder45
TITLE ""
FILE "02.mp3" MP3
  TRACK 01 AUDIO
    TITLE "0:"
    INDEX 01 00:00:00
  TRACK 02 AUDIO
    TITLE "28:cjc023_3196"
    INDEX 01 00:00:13
  TRACK 03 AUDIO
    TITLE "0:"
    INDEX 01 00:01:22
  TRACK 04 AUDIO
    TITLE "29:cjc023_3197"
    INDEX 01 00:01:69
  TRACK 05 AUDIO
    TITLE "0:"
    INDEX 01 00:04:23
  TRACK 06 AUDIO
    TITLE "30:cjc023_3198"
    INDEX 01 00:04:44
  TRACK 07 AUDIO
    TITLE "0:"
    INDEX 01 00:06:14
  TRACK 08 AUDIO
    TITLE "31:cjc023_3199"
    INDEX 01 00:06:35
  TRACK 09 AUDIO
    TITLE "0:"
    INDEX 01 00:08:01
  TRACK 10 AUDIO
    TITLE "28:cjc023_3200"
    INDEX 01 00:09:00
  TRACK 11 AUDIO
    TITLE "0:"
    INDEX 01 00:10:10
  TRACK 12 AUDIO
    TITLE "29:cjc023_3201"
    INDEX 01 00:10:59
  TRACK 13 AUDIO
    TITLE "0:"
    INDEX 01 00:13:30
  TRACK 14 AUDIO
    TITLE "30:cjc023_3202"
    INDEX 01 00:13:53
  TRACK 15 AUDIO
    TITLE "0:"
    INDEX 01 00:15:46
  TRACK 16 AUDIO
    TITLE "31:cjc023_3203"
    INDEX 01 00:15:72
  TRACK 17 AUDIO
    TITLE "0:"
    INDEX 01 00:17:65
  TRACK 18 AUDIO
    TITLE "28:cjc023_3204"
    INDEX 01 00:18:62
  TRACK 19 AUDIO
    TITLE "0:"
    INDEX 01 00:19:65
  TRACK 20 AUDIO
    TITLE "29:cjc023_3205"
    INDEX 01 00:20:37
  TRACK 21 AUDIO
    TITLE "0:"
    INDEX 01 00:22:11
  TRACK 22 AUDIO
    TITLE "30:cjc023_3206"
    INDEX 01 00:22:32
  TRACK 23 AUDIO
    TITLE "0:"
    INDEX 01 00:23:71
  TRACK 24 AUDIO
    TITLE "31:cjc023_3207"
    INDEX 01 00:24:20
  TRACK 25 AUDIO
    TITLE "0:"
    INDEX 01 00:25:58
  TRACK 26 AUDIO
    TITLE "28:cjc023_3208"
    INDEX 01 00:26:60
  TRACK 27 AUDIO
    TITLE "0:"
    INDEX 01 00:28:19
  TRACK 28 AUDIO
    TITLE "29:cjc023_3209"
    INDEX 01 00:28:70
  TRACK 29 AUDIO
    TITLE "0:"
    INDEX 01 00:32:41
  TRACK 30 AUDIO
    TITLE "30:cjc023_3210"
    INDEX 01 00:32:66
  TRACK 31 AUDIO
    TITLE "0:"
    INDEX 01 00:36:07
  TRACK 32 AUDIO
    TITLE "31:cjc023_3211"
    INDEX 01 00:36:29
  TRACK 33 AUDIO
    TITLE "0:"
    INDEX 01 00:39:43
  TRACK 34 AUDIO
    TITLE "28:cjc023_3212"
    INDEX 01 00:40:40
  TRACK 35 AUDIO
    TITLE "0:"
    INDEX 01 00:41:55
  TRACK 36 AUDIO
    TITLE "29:cjc023_3213"
    INDEX 01 00:42:31
  TRACK 37 AUDIO
    TITLE "0:"
    INDEX 01 00:44:07
  TRACK 38 AUDIO
    TITLE "30:cjc023_3214"
    INDEX 01 00:44:30
  TRACK 39 AUDIO
    TITLE "0:"
    INDEX 01 00:46:43
  TRACK 40 AUDIO
    TITLE "31:cjc023_3215"
    INDEX 01 00:46:62
  TRACK 41 AUDIO
    TITLE "0:"
    INDEX 01 00:48:73
  TRACK 42 AUDIO
    TITLE "28:cjc023_3216"
    INDEX 01 00:49:70
  TRACK 43 AUDIO
    TITLE "0:"
    INDEX 01 00:50:70
  TRACK 44 AUDIO
    TITLE "29:cjc023_3217"
    INDEX 01 00:51:44
  TRACK 45 AUDIO
    TITLE "0:"
    INDEX 01 00:53:19
  TRACK 46 AUDIO
    TITLE "30:cjc023_3218"
    INDEX 01 00:53:43
  TRACK 47 AUDIO
    TITLE "0:"
    INDEX 01 00:55:26
  TRACK 48 AUDIO
    TITLE "31:cjc023_3219"
    INDEX 01 00:55:50
  TRACK 49 AUDIO
    TITLE "0:"
    INDEX 01 00:57:31
  TRACK 50 AUDIO
    TITLE "28:cjc023_3220"
    INDEX 01 00:58:34
  TRACK 51 AUDIO
    TITLE "0:"
    INDEX 01 00:59:41
  TRACK 52 AUDIO
    TITLE "29:cjc023_3221"
    INDEX 01 01:00:13
  TRACK 53 AUDIO
    TITLE "0:"
    INDEX 01 01:02:16
  TRACK 54 AUDIO
    TITLE "30:cjc023_3222"
    INDEX 01 01:02:38
  TRACK 55 AUDIO
    TITLE "0:"
    INDEX 01 01:04:00
  TRACK 56 AUDIO
    TITLE "31:cjc023_3223"
    INDEX 01 01:04:21
  TRACK 57 AUDIO
    TITLE "0:"
    INDEX 01 01:05:56
  TRACK 58 AUDIO
    TITLE "28:cjc023_3224"
    INDEX 01 01:06:53
  TRACK 59 AUDIO
    TITLE "0:"
    INDEX 01 01:07:70
  TRACK 60 AUDIO
    TITLE "29:cjc023_3225"
    INDEX 01 01:08:42
  TRACK 61 AUDIO
    TITLE "0:"
    INDEX 01 01:11:02
  TRACK 62 AUDIO
    TITLE "30:cjc023_3226"
    INDEX 01 01:11:27
  TRACK 63 AUDIO
    TITLE "0:"
    INDEX 01 01:13:16
  TRACK 64 AUDIO
    TITLE "31:cjc023_3227"
    INDEX 01 01:13:42
  TRACK 65 AUDIO
    TITLE "0:"
    INDEX 01 01:15:31
  TRACK 66 AUDIO
    TITLE "28:cjc023_3228"
    INDEX 01 01:16:30
  TRACK 67 AUDIO
    TITLE "0:"
    INDEX 01 01:17:37
  TRACK 68 AUDIO
    TITLE "29:cjc023_3229"
    INDEX 01 01:18:11
  TRACK 69 AUDIO
    TITLE "0:"
    INDEX 01 01:20:20
  TRACK 70 AUDIO
    TITLE "30:cjc023_3230"
    INDEX 01 01:20:44
  TRACK 71 AUDIO
    TITLE "0:"
    INDEX 01 01:22:37
  TRACK 72 AUDIO
    TITLE "31:cjc023_3231"
    INDEX 01 01:22:58
  TRACK 73 AUDIO
    TITLE "0:"
    INDEX 01 01:24:49
  TRACK 74 AUDIO
    TITLE "28:cjc023_3232"
    INDEX 01 01:25:49
  TRACK 75 AUDIO
    TITLE "0:"
    INDEX 01 01:26:74
  TRACK 76 AUDIO
    TITLE "29:cjc023_3233"
    INDEX 01 01:27:46
  TRACK 77 AUDIO
    TITLE "0:"
    INDEX 01 01:28:71
  TRACK 78 AUDIO
    TITLE "30:cjc023_3234"
    INDEX 01 01:29:15
  TRACK 79 AUDIO
    TITLE "0:"
    INDEX 01 01:30:58
  TRACK 80 AUDIO
    TITLE "31:cjc023_3235"
    INDEX 01 01:31:04
  TRACK 81 AUDIO
    TITLE "0:"
    INDEX 01 01:32:49
  TRACK 82 AUDIO
    TITLE "28:cjc023_3236"
    INDEX 01 01:33:46
  TRACK 83 AUDIO
    TITLE "0:"
    INDEX 01 01:34:54
  TRACK 84 AUDIO
    TITLE "29:cjc023_3237"
    INDEX 01 01:35:27
  TRACK 85 AUDIO
    TITLE "0:"
    INDEX 01 01:36:74
  TRACK 86 AUDIO
    TITLE "30:cjc023_3238"
    INDEX 01 01:37:21
  TRACK 87 AUDIO
    TITLE "0:"
    INDEX 01 01:38:71
  TRACK 88 AUDIO
    TITLE "31:cjc023_3239"
    INDEX 01 01:39:15
  TRACK 89 AUDIO
    TITLE "0:"
    INDEX 01 01:40:64
  TRACK 90 AUDIO
    TITLE "28:cjc023_3240"
    INDEX 01 01:41:59
  TRACK 91 AUDIO
    TITLE "0:"
    INDEX 01 01:43:25
  TRACK 92 AUDIO
    TITLE "29:cjc023_3241"
    INDEX 01 01:44:07
  TRACK 93 AUDIO
    TITLE "0:"
    INDEX 01 01:45:67
  TRACK 94 AUDIO
    TITLE "30:cjc023_3242"
    INDEX 01 01:46:18
  TRACK 95 AUDIO
    TITLE "0:"
    INDEX 01 01:48:11
  TRACK 96 AUDIO
    TITLE "31:cjc023_3243"
    INDEX 01 01:48:36
  TRACK 97 AUDIO
    TITLE "0:"
    INDEX 01 01:50:29
  TRACK 98 AUDIO
    TITLE "28:cjc023_3244"
    INDEX 01 01:51:28
  TRACK 99 AUDIO
    TITLE "0:"
    INDEX 01 01:52:40
  TRACK 100 AUDIO
    TITLE "29:cjc023_3245"
    INDEX 01 01:53:14
  TRACK 101 AUDIO
    TITLE "0:"
    INDEX 01 01:55:46
  TRACK 102 AUDIO
    TITLE "30:cjc023_3246"
    INDEX 01 01:55:67
  TRACK 103 AUDIO
    TITLE "0:"
    INDEX 01 01:57:64
  TRACK 104 AUDIO
    TITLE "31:cjc023_3247"
    INDEX 01 01:58:13
  TRACK 105 AUDIO
    TITLE "0:"
    INDEX 01 02:00:10
  TRACK 106 AUDIO
    TITLE "28:cjc023_3248"
    INDEX 01 02:01:07
  TRACK 107 AUDIO
    TITLE "0:"
    INDEX 01 02:02:13
  TRACK 108 AUDIO
    TITLE "29:cjc023_3249"
    INDEX 01 02:02:60
  TRACK 109 AUDIO
    TITLE "0:"
    INDEX 01 02:04:43
  TRACK 110 AUDIO
    TITLE "30:cjc023_3250"
    INDEX 01 02:04:68
  TRACK 111 AUDIO
    TITLE "0:"
    INDEX 01 02:06:50
  TRACK 112 AUDIO
    TITLE "31:cjc023_3251"
    INDEX 01 02:06:73
  TRACK 113 AUDIO
    TITLE "0:"
    INDEX 01 02:08:56
  TRACK 114 AUDIO
    TITLE "28:cjc023_3252"
    INDEX 01 02:09:52
  TRACK 115 AUDIO
    TITLE "0:"
    INDEX 01 02:10:65
  TRACK 116 AUDIO
    TITLE "29:cjc023_3253"
    INDEX 01 02:11:37
  TRACK 117 AUDIO
    TITLE "0:"
    INDEX 01 02:13:32
  TRACK 118 AUDIO
    TITLE "30:cjc023_3254"
    INDEX 01 02:13:56
  TRACK 119 AUDIO
    TITLE "0:"
    INDEX 01 02:15:37
  TRACK 120 AUDIO
    TITLE "31:cjc023_3255"
    INDEX 01 02:15:60
  TRACK 121 AUDIO
    TITLE "0:"
    INDEX 01 02:17:44
  TRACK 122 AUDIO
    TITLE "28:cjc023_3256"
    INDEX 01 02:18:41
  TRACK 123 AUDIO
    TITLE "0:"
    INDEX 01 02:20:09
  TRACK 124 AUDIO
    TITLE "29:cjc023_3257"
    INDEX 01 02:20:54
  TRACK 125 AUDIO
    TITLE "0:"
    INDEX 01 02:23:07
  TRACK 126 AUDIO
    TITLE "30:cjc023_3258"
    INDEX 01 02:23:28
  TRACK 127 AUDIO
    TITLE "0:"
    INDEX 01 02:25:53
  TRACK 128 AUDIO
    TITLE "31:cjc023_3259"
    INDEX 01 02:25:74
  TRACK 129 AUDIO
    TITLE "0:"
    INDEX 01 02:28:22
  TRACK 130 AUDIO
    TITLE "28:cjc023_3260"
    INDEX 01 02:29:17
  TRACK 131 AUDIO
    TITLE "0:"
    INDEX 01 02:30:34
  TRACK 132 AUDIO
    TITLE "29:cjc023_3261"
    INDEX 01 02:31:08
  TRACK 133 AUDIO
    TITLE "0:"
    INDEX 01 02:32:43
  TRACK 134 AUDIO
    TITLE "30:cjc023_3262"
    INDEX 01 02:32:65
  TRACK 135 AUDIO
    TITLE "0:"
    INDEX 01 02:34:66
  TRACK 136 AUDIO
    TITLE "31:cjc023_3263"
    INDEX 01 02:35:12
  TRACK 137 AUDIO
    TITLE "0:"
    INDEX 01 02:37:13
  TRACK 138 AUDIO
    TITLE "28:cjc023_3264"
    INDEX 01 02:38:10
  TRACK 139 AUDIO
    TITLE "0:"
    INDEX 01 02:39:10
  TRACK 140 AUDIO
    TITLE "29:cjc023_3265"
    INDEX 01 02:39:59
  TRACK 141 AUDIO
    TITLE "0:"
    INDEX 01 02:41:44
  TRACK 142 AUDIO
    TITLE "30:cjc023_3266"
    INDEX 01 02:41:66
  TRACK 143 AUDIO
    TITLE "0:"
    INDEX 01 02:44:11
  TRACK 144 AUDIO
    TITLE "31:cjc023_3267"
    INDEX 01 02:44:33
  TRACK 145 AUDIO
    TITLE "0:"
    INDEX 01 02:46:53
  TRACK 146 AUDIO
    TITLE "28:cjc023_3268"
    INDEX 01 02:47:51
  TRACK 147 AUDIO
    TITLE "0:"
    INDEX 01 02:48:58
  TRACK 148 AUDIO
    TITLE "29:cjc023_3269"
    INDEX 01 02:49:28
  TRACK 149 AUDIO
    TITLE "0:"
    INDEX 01 02:51:64
  TRACK 150 AUDIO
    TITLE "30:cjc023_3270"
    INDEX 01 02:52:11
  TRACK 151 AUDIO
    TITLE "0:"
    INDEX 01 02:54:02
  TRACK 152 AUDIO
    TITLE "31:cjc023_3271"
    INDEX 01 02:54:23
  TRACK 153 AUDIO
    TITLE "0:"
    INDEX 01 02:56:14
  TRACK 154 AUDIO
    TITLE "28:cjc023_3272"
    INDEX 01 02:57:12
  TRACK 155 AUDIO
    TITLE "0:"
    INDEX 01 02:58:25
  TRACK 156 AUDIO
    TITLE "29:cjc023_3273"
    INDEX 01 02:58:72
  TRACK 157 AUDIO
    TITLE "0:"
    INDEX 01 03:01:08
  TRACK 158 AUDIO
    TITLE "30:cjc023_3274"
    INDEX 01 03:01:31
  TRACK 159 AUDIO
    TITLE "0:"
    INDEX 01 03:03:38
  TRACK 160 AUDIO
    TITLE "31:cjc023_3275"
    INDEX 01 03:03:61
  TRACK 161 AUDIO
    TITLE "0:"
    INDEX 01 03:05:68
  TRACK 162 AUDIO
    TITLE "28:cjc023_3276"
    INDEX 01 03:06:66
  TRACK 163 AUDIO
    TITLE "0:"
    INDEX 01 03:08:19
  TRACK 164 AUDIO
    TITLE "29:cjc023_3277"
    INDEX 01 03:08:68
  TRACK 165 AUDIO
    TITLE "0:"
    INDEX 01 03:10:67
  TRACK 166 AUDIO
    TITLE "30:cjc023_3278"
    INDEX 01 03:11:14
  TRACK 167 AUDIO
    TITLE "0:"
    INDEX 01 03:13:34
  TRACK 168 AUDIO
    TITLE "31:cjc023_3279"
    INDEX 01 03:13:60
  TRACK 169 AUDIO
    TITLE "0:"
    INDEX 01 03:16:01
  TRACK 170 AUDIO
    TITLE "28:cjc023_3280"
    INDEX 01 03:17:09
  TRACK 171 AUDIO
    TITLE "0:"
    INDEX 01 03:18:22
  TRACK 172 AUDIO
    TITLE "29:cjc023_3281"
    INDEX 01 03:18:71
  TRACK 173 AUDIO
    TITLE "0:"
    INDEX 01 03:20:58
  TRACK 174 AUDIO
    TITLE "30:cjc023_3282"
    INDEX 01 03:21:08
  TRACK 175 AUDIO
    TITLE "0:"
    INDEX 01 03:22:74
  TRACK 176 AUDIO
    TITLE "31:cjc023_3283"
    INDEX 01 03:23:23
  TRACK 177 AUDIO
    TITLE "0:"
    INDEX 01 03:25:14
  TRACK 178 AUDIO
    TITLE "28:cjc023_3284"
    INDEX 01 03:26:13
  TRACK 179 AUDIO
    TITLE "0:"
    INDEX 01 03:27:23
  TRACK 180 AUDIO
    TITLE "29:cjc023_3285"
    INDEX 01 03:27:70
  TRACK 181 AUDIO
    TITLE "0:"
    INDEX 01 03:29:70
  TRACK 182 AUDIO
    TITLE "30:cjc023_3286"
    INDEX 01 03:30:19
  TRACK 183 AUDIO
    TITLE "0:"
    INDEX 01 03:32:16
  TRACK 184 AUDIO
    TITLE "31:cjc023_3287"
    INDEX 01 03:32:41
  TRACK 185 AUDIO
    TITLE "0:"
    INDEX 01 03:34:40
  TRACK 186 AUDIO
    TITLE "28:cjc023_3288"
    INDEX 01 03:35:38
  TRACK 187 AUDIO
    TITLE "0:"
    INDEX 01 03:36:49
  TRACK 188 AUDIO
    TITLE "29:cjc023_3289"
    INDEX 01 03:37:23
  TRACK 189 AUDIO
    TITLE "0:"
    INDEX 01 03:40:13
  TRACK 190 AUDIO
    TITLE "30:cjc023_3290"
    INDEX 01 03:40:37
  TRACK 191 AUDIO
    TITLE "0:"
    INDEX 01 03:43:04
  TRACK 192 AUDIO
    TITLE "31:cjc023_3291"
    INDEX 01 03:43:29
  TRACK 193 AUDIO
    TITLE "0:"
    INDEX 01 03:45:73
  TRACK 194 AUDIO
    TITLE "28:cjc023_3292"
    INDEX 01 03:46:71
  TRACK 195 AUDIO
    TITLE "0:"
    INDEX 01 03:48:01
  TRACK 196 AUDIO
    TITLE "29:cjc023_3293"
    INDEX 01 03:48:48
  TRACK 197 AUDIO
    TITLE "0:"
    INDEX 01 03:50:61
  TRACK 198 AUDIO
    TITLE "30:cjc023_3294"
    INDEX 01 03:51:11
  TRACK 199 AUDIO
    TITLE "0:"
    INDEX 01 03:53:34
  TRACK 200 AUDIO
    TITLE "31:cjc023_3295"
    INDEX 01 03:53:57
  TRACK 201 AUDIO
    TITLE "0:"
    INDEX 01 03:56:07
  TRACK 202 AUDIO
    TITLE "28:cjc023_3296"
    INDEX 01 03:57:06
  TRACK 203 AUDIO
    TITLE "0:"
    INDEX 01 03:58:13
  TRACK 204 AUDIO
    TITLE "29:cjc023_3297"
    INDEX 01 03:58:66
  TRACK 205 AUDIO
    TITLE "0:"
    INDEX 01 04:01:08
  TRACK 206 AUDIO
    TITLE "30:cjc023_3298"
    INDEX 01 04:01:29
  TRACK 207 AUDIO
    TITLE "0:"
    INDEX 01 04:03:34
  TRACK 208 AUDIO
    TITLE "31:cjc023_3299"
    INDEX 01 04:03:58
  TRACK 209 AUDIO
    TITLE "0:"
    INDEX 01 04:05:64
  TRACK 210 AUDIO
    TITLE "28:cjc023_3300"
    INDEX 01 04:06:60
  TRACK 211 AUDIO
    TITLE "0:"
    INDEX 01 04:08:08
  TRACK 212 AUDIO
    TITLE "29:cjc023_3301"
    INDEX 01 04:08:55
  TRACK 213 AUDIO
    TITLE "0:"
    INDEX 01 04:11:71
  TRACK 214 AUDIO
    TITLE "30:cjc023_3302"
    INDEX 01 04:12:27
  TRACK 215 AUDIO
    TITLE "0:"
    INDEX 01 04:14:67
  TRACK 216 AUDIO
    TITLE "31:cjc023_3303"
    INDEX 01 04:15:14
  TRACK 217 AUDIO
    TITLE "0:"
    INDEX 01 04:17:52
  TRACK 218 AUDIO
    TITLE "28:cjc023_3304"
    INDEX 01 04:18:47
  TRACK 219 AUDIO
    TITLE "0:"
    INDEX 01 04:19:61
  TRACK 220 AUDIO
    TITLE "29:cjc023_3305"
    INDEX 01 04:20:33
  TRACK 221 AUDIO
    TITLE "0:"
    INDEX 01 04:23:13
  TRACK 222 AUDIO
    TITLE "30:cjc023_3306"
    INDEX 01 04:23:35
  TRACK 223 AUDIO
    TITLE "0:"
    INDEX 01 04:26:16
  TRACK 224 AUDIO
    TITLE "31:cjc023_3307"
    INDEX 01 04:26:37
  TRACK 225 AUDIO
    TITLE "0:"
    INDEX 01 04:29:16
  TRACK 226 AUDIO
    TITLE "28:cjc023_3308"
    INDEX 01 04:30:15
  TRACK 227 AUDIO
    TITLE "0:"
    INDEX 01 04:31:46
  TRACK 228 AUDIO
    TITLE "29:cjc023_3309"
    INDEX 01 04:32:16
  TRACK 229 AUDIO
    TITLE "0:"
    INDEX 01 04:34:01
  TRACK 230 AUDIO
    TITLE "30:cjc023_3310"
    INDEX 01 04:34:23
  TRACK 231 AUDIO
    TITLE "0:"
    INDEX 01 04:36:16
  TRACK 232 AUDIO
    TITLE "31:cjc023_3311"
    INDEX 01 04:36:37
  TRACK 233 AUDIO
    TITLE "0:"
    INDEX 01 04:38:32
  TRACK 234 AUDIO
    TITLE "28:cjc023_3312"
    INDEX 01 04:39:28
  TRACK 235 AUDIO
    TITLE "0:"
    INDEX 01 04:40:49
  TRACK 236 AUDIO
    TITLE "29:cjc023_3313"
    INDEX 01 04:41:21
  TRACK 237 AUDIO
    TITLE "0:"
    INDEX 01 04:43:59
  TRACK 238 AUDIO
    TITLE "30:cjc023_3314"
    INDEX 01 04:44:04
  TRACK 239 AUDIO
    TITLE "0:"
    INDEX 01 04:46:54
  TRACK 240 AUDIO
    TITLE "31:cjc023_3315"
    INDEX 01 04:47:00
  TRACK 241 AUDIO
    TITLE "0:"
    INDEX 01 04:49:50
  TRACK 242 AUDIO
    TITLE "28:cjc023_3316"
    INDEX 01 04:50:47
  TRACK 243 AUDIO
    TITLE "0:"
    INDEX 01 04:51:64
  TRACK 244 AUDIO
    TITLE "29:cjc023_3317"
    INDEX 01 04:52:35
  TRACK 245 AUDIO
    TITLE "0:"
    INDEX 01 04:54:16
  TRACK 246 AUDIO
    TITLE "30:cjc023_3318"
    INDEX 01 04:54:35
  TRACK 247 AUDIO
    TITLE "0:"
    INDEX 01 04:56:38
  TRACK 248 AUDIO
    TITLE "31:cjc023_3319"
    INDEX 01 04:56:54
  TRACK 249 AUDIO
    TITLE "0:"
    INDEX 01 04:58:59
  TRACK 250 AUDIO
    TITLE "28:cjc023_3320"
    INDEX 01 04:59:52
  TRACK 251 AUDIO
    TITLE "0:"
    INDEX 01 05:00:67
  TRACK 252 AUDIO
    TITLE "29:cjc023_3321"
    INDEX 01 05:01:41
  TRACK 253 AUDIO
    TITLE "0:"
    INDEX 01 05:05:25
  TRACK 254 AUDIO
    TITLE "30:cjc023_3322"
    INDEX 01 05:05:51
  TRACK 255 AUDIO
    TITLE "0:"
    INDEX 01 05:08:26
  TRACK 256 AUDIO
    TITLE "31:cjc023_3323"
    INDEX 01 05:08:47
  TRACK 257 AUDIO
    TITLE "0:"
    INDEX 01 05:11:22
  TRACK 258 AUDIO
    TITLE "28:cjc023_3324"
    INDEX 01 05:12:20
  TRACK 259 AUDIO
    TITLE "0:"
    INDEX 01 05:13:31
  TRACK 260 AUDIO
    TITLE "29:cjc023_3325"
    INDEX 01 05:14:05
  TRACK 261 AUDIO
    TITLE "0:"
    INDEX 01 05:18:05
  TRACK 262 AUDIO
    TITLE "30:cjc023_3326"
    INDEX 01 05:18:30
  TRACK 263 AUDIO
    TITLE "0:"
    INDEX 01 05:21:26
  TRACK 264 AUDIO
    TITLE "31:cjc023_3327"
    INDEX 01 05:21:48
  TRACK 265 AUDIO
    TITLE "0:"
    INDEX 01 05:24:44
  TRACK 266 AUDIO
    TITLE "28:cjc023_3328"
    INDEX 01 05:25:40
  TRACK 267 AUDIO
    TITLE "0:"
    INDEX 01 05:27:00
  TRACK 268 AUDIO
    TITLE "29:cjc023_3329"
    INDEX 01 05:27:49
  TRACK 269 AUDIO
    TITLE "0:"
    INDEX 01 05:29:40
  TRACK 270 AUDIO
    TITLE "30:cjc023_3330"
    INDEX 01 05:29:57
  TRACK 271 AUDIO
    TITLE "0:"
    INDEX 01 05:31:62
  TRACK 272 AUDIO
    TITLE "31:cjc023_3331"
    INDEX 01 05:32:12
  TRACK 273 AUDIO
    TITLE "0:"
    INDEX 01 05:34:17
  TRACK 274 AUDIO
    TITLE "28:cjc023_3332"
    INDEX 01 05:35:21
  TRACK 275 AUDIO
    TITLE "0:"
    INDEX 01 05:36:26
  TRACK 276 AUDIO
    TITLE "29:cjc023_3333"
    INDEX 01 05:36:73
  TRACK 277 AUDIO
    TITLE "0:"
    INDEX 01 05:38:46
  TRACK 278 AUDIO
    TITLE "30:cjc023_3334"
    INDEX 01 05:38:68
  TRACK 279 AUDIO
    TITLE "0:"
    INDEX 01 05:40:41
  TRACK 280 AUDIO
    TITLE "31:cjc023_3335"
    INDEX 01 05:40:65
  TRACK 281 AUDIO
    TITLE "0:"
    INDEX 01 05:42:38
  TRACK 282 AUDIO
    TITLE "28:cjc023_3336"
    INDEX 01 05:43:38
  TRACK 283 AUDIO
    TITLE "0:"
    INDEX 01 05:44:61
  TRACK 284 AUDIO
    TITLE "29:cjc023_3337"
    INDEX 01 05:45:31
  TRACK 285 AUDIO
    TITLE "0:"
    INDEX 01 05:47:55
  TRACK 286 AUDIO
    TITLE "30:cjc023_3338"
    INDEX 01 05:48:00
  TRACK 287 AUDIO
    TITLE "0:"
    INDEX 01 05:49:56
  TRACK 288 AUDIO
    TITLE "31:cjc023_3339"
    INDEX 01 05:50:08
  TRACK 289 AUDIO
    TITLE "0:"
    INDEX 01 05:51:61
  TRACK 290 AUDIO
    TITLE "28:cjc023_3340"
    INDEX 01 05:52:66
  TRACK 291 AUDIO
    TITLE "0:"
    INDEX 01 05:53:68
  TRACK 292 AUDIO
    TITLE "29:cjc023_3341"
    INDEX 01 05:54:40
  TRACK 293 AUDIO
    TITLE "0:"
    INDEX 01 05:56:44
  TRACK 294 AUDIO
    TITLE "30:cjc023_3342"
    INDEX 01 05:56:70
  TRACK 295 AUDIO
    TITLE "0:"
    INDEX 01 05:58:41
  TRACK 296 AUDIO
    TITLE "31:cjc023_3343"
    INDEX 01 05:58:69
  TRACK 297 AUDIO
    TITLE "0:"
    INDEX 01 06:00:40
  TRACK 298 AUDIO
    TITLE "28:cjc023_3344"
    INDEX 01 06:01:40
  TRACK 299 AUDIO
    TITLE "0:"
    INDEX 01 06:02:74
  TRACK 300 AUDIO
    TITLE "29:cjc023_3345"
    INDEX 01 06:03:42
  TRACK 301 AUDIO
    TITLE "0:"
    INDEX 01 06:07:27
  TRACK 302 AUDIO
    TITLE "30:cjc023_3346"
    INDEX 01 06:07:46
  TRACK 303 AUDIO
    TITLE "0:"
    INDEX 01 06:11:44
  TRACK 304 AUDIO
    TITLE "31:cjc023_3347"
    INDEX 01 06:11:65
  TRACK 305 AUDIO
    TITLE "0:"
    INDEX 01 06:15:65
  TRACK 306 AUDIO
    TITLE "28:cjc023_3348"
    INDEX 01 06:16:63
  TRACK 307 AUDIO
    TITLE "0:"
    INDEX 01 06:18:05
  TRACK 308 AUDIO
    TITLE "29:cjc023_3349"
    INDEX 01 06:18:54
  TRACK 309 AUDIO
    TITLE "0:"
    INDEX 01 06:21:23
  TRACK 310 AUDIO
    TITLE "30:cjc023_3350"
    INDEX 01 06:21:44
  TRACK 311 AUDIO
    TITLE "0:"
    INDEX 01 06:23:49
  TRACK 312 AUDIO
    TITLE "31:cjc023_3351"
    INDEX 01 06:23:71
  TRACK 313 AUDIO
    TITLE "0:"
    INDEX 01 06:25:73
  TRACK 314 AUDIO
    TITLE "28:cjc023_3352"
    INDEX 01 06:26:71
  TRACK 315 AUDIO
    TITLE "0:"
    INDEX 01 06:28:31
  TRACK 316 AUDIO
    TITLE "29:cjc023_3353"
    INDEX 01 06:29:03
  TRACK 317 AUDIO
    TITLE "0:"
    INDEX 01 06:31:19
  TRACK 318 AUDIO
    TITLE "30:cjc023_3354"
    INDEX 01 06:31:49
  TRACK 319 AUDIO
    TITLE "0:"
    INDEX 01 06:33:55
  TRACK 320 AUDIO
    TITLE "31:cjc023_3355"
    INDEX 01 06:34:08
  TRACK 321 AUDIO
    TITLE "0:"
    INDEX 01 06:36:14
  TRACK 322 AUDIO
    TITLE "28:cjc023_3356"
    INDEX 01 06:37:14
  TRACK 323 AUDIO
    TITLE "0:"
    INDEX 01 06:38:19
  TRACK 324 AUDIO
    TITLE "29:cjc023_3357"
    INDEX 01 06:39:01
  TRACK 325 AUDIO
    TITLE "0:"
    INDEX 01 06:41:49
  TRACK 326 AUDIO
    TITLE "30:cjc023_3358"
    INDEX 01 06:41:72
  TRACK 327 AUDIO
    TITLE "0:"
    INDEX 01 06:44:36
  TRACK 328 AUDIO
    TITLE "31:cjc023_3359"
    INDEX 01 06:44:55
  TRACK 329 AUDIO
    TITLE "0:"
    INDEX 01 06:47:16
  TRACK 330 AUDIO
    TITLE "28:cjc023_3360"
    INDEX 01 06:48:16
  TRACK 331 AUDIO
    TITLE "0:"
    INDEX 01 06:49:25
  TRACK 332 AUDIO
    TITLE "29:cjc023_3361"
    INDEX 01 06:49:72
  TRACK 333 AUDIO
    TITLE "0:"
    INDEX 01 06:53:19
  TRACK 334 AUDIO
    TITLE "30:cjc023_3362"
    INDEX 01 06:53:42
  TRACK 335 AUDIO
    TITLE "0:"
    INDEX 01 06:56:29
  TRACK 336 AUDIO
    TITLE "31:cjc023_3363"
    INDEX 01 06:56:50
  TRACK 337 AUDIO
    TITLE "0:"
    INDEX 01 06:59:37
  TRACK 338 AUDIO
    TITLE "28:cjc023_3364"
    INDEX 01 07:00:33
  TRACK 339 AUDIO
    TITLE "0:"
    INDEX 01 07:01:61
  TRACK 340 AUDIO
    TITLE "29:cjc023_3365"
    INDEX 01 07:02:33
  TRACK 341 AUDIO
    TITLE "0:"
    INDEX 01 07:04:62
  TRACK 342 AUDIO
    TITLE "30:cjc023_3366"
    INDEX 01 07:05:10
  TRACK 343 AUDIO
    TITLE "0:"
    INDEX 01 07:07:33
  TRACK 344 AUDIO
    TITLE "31:cjc023_3367"
    INDEX 01 07:07:52
  TRACK 345 AUDIO
    TITLE "0:"
    INDEX 01 07:10:00
  TRACK 346 AUDIO
    TITLE "28:cjc023_3368"
    INDEX 01 07:10:70
  TRACK 347 AUDIO
    TITLE "0:"
    INDEX 01 07:12:20
  TRACK 348 AUDIO
    TITLE "29:cjc023_3369"
    INDEX 01 07:12:67
  TRACK 349 AUDIO
    TITLE "0:"
    INDEX 01 07:16:67
  TRACK 350 AUDIO
    TITLE "30:cjc023_3370"
    INDEX 01 07:17:17
  TRACK 351 AUDIO
    TITLE "0:"
    INDEX 01 07:20:49
  TRACK 352 AUDIO
    TITLE "31:cjc023_3371"
    INDEX 01 07:20:72
  TRACK 353 AUDIO
    TITLE "0:"
    INDEX 01 07:24:31
  TRACK 354 AUDIO
    TITLE "28:cjc023_3372"
    INDEX 01 07:25:29
  TRACK 355 AUDIO
    TITLE "0:"
    INDEX 01 07:26:54
  TRACK 356 AUDIO
    TITLE "29:cjc023_3373"
    INDEX 01 07:27:26
  TRACK 357 AUDIO
    TITLE "0:"
    INDEX 01 07:29:64
  TRACK 358 AUDIO
    TITLE "30:cjc023_3374"
    INDEX 01 07:30:10
  TRACK 359 AUDIO
    TITLE "0:"
    INDEX 01 07:32:35
  TRACK 360 AUDIO
    TITLE "31:cjc023_3375"
    INDEX 01 07:32:60
  TRACK 361 AUDIO
    TITLE "0:"
    INDEX 01 07:35:11
  TRACK 362 AUDIO
    TITLE "28:cjc023_3376"
    INDEX 01 07:36:11
  TRACK 363 AUDIO
    TITLE "0:"
    INDEX 01 07:37:38
  TRACK 364 AUDIO
    TITLE "29:cjc023_3377"
    INDEX 01 07:38:08
  TRACK 365 AUDIO
    TITLE "0:"
    INDEX 01 07:40:20
  TRACK 366 AUDIO
    TITLE "30:cjc023_3378"
    INDEX 01 07:40:44
  TRACK 367 AUDIO
    TITLE "0:"
    INDEX 01 07:42:58
  TRACK 368 AUDIO
    TITLE "31:cjc023_3379"
    INDEX 01 07:43:09
  TRACK 369 AUDIO
    TITLE "0:"
    INDEX 01 07:45:25
  TRACK 370 AUDIO
    TITLE "28:cjc023_3380"
    INDEX 01 07:46:23
  TRACK 371 AUDIO
    TITLE "0:"
    INDEX 01 07:47:40
  TRACK 372 AUDIO
    TITLE "29:cjc023_3381"
    INDEX 01 07:48:10
  TRACK 373 AUDIO
    TITLE "0:"
    INDEX 01 07:50:62
  TRACK 374 AUDIO
    TITLE "30:cjc023_3382"
    INDEX 01 07:51:08
  TRACK 375 AUDIO
    TITLE "0:"
    INDEX 01 07:53:35
  TRACK 376 AUDIO
    TITLE "31:cjc023_3383"
    INDEX 01 07:53:58
  TRACK 377 AUDIO
    TITLE "0:"
    INDEX 01 07:56:12
  TRACK 378 AUDIO
    TITLE "28:cjc023_3384"
    INDEX 01 07:57:09
  TRACK 379 AUDIO
    TITLE "0:"
    INDEX 01 07:58:34
  TRACK 380 AUDIO
    TITLE "29:cjc023_3385"
    INDEX 01 07:59:06
  TRACK 381 AUDIO
    TITLE "0:"
    INDEX 01 08:01:34
  TRACK 382 AUDIO
    TITLE "30:cjc023_3386"
    INDEX 01 08:01:58
  TRACK 383 AUDIO
    TITLE "0:"
    INDEX 01 08:04:27
  TRACK 384 AUDIO
    TITLE "31:cjc023_3387"
    INDEX 01 08:04:48
  TRACK 385 AUDIO
    TITLE "0:"
    INDEX 01 08:07:17
  TRACK 386 AUDIO
    TITLE "28:cjc023_3388"
    INDEX 01 08:08:13
  TRACK 387 AUDIO
    TITLE "0:"
    INDEX 01 08:09:04
  TRACK 388 AUDIO
    TITLE "29:cjc023_3389"
    INDEX 01 08:09:63
  TRACK 389 AUDIO
    TITLE "0:"
    INDEX 01 08:12:67
  TRACK 390 AUDIO
    TITLE "30:cjc023_3390"
    INDEX 01 08:13:16
  TRACK 391 AUDIO
    TITLE "0:"
    INDEX 01 08:15:38
  TRACK 392 AUDIO
    TITLE "31:cjc023_3391"
    INDEX 01 08:15:64
  TRACK 393 AUDIO
    TITLE "0:"
    INDEX 01 08:18:11
  TRACK 394 AUDIO
    TITLE "28:cjc023_3392"
    INDEX 01 08:19:11
  TRACK 395 AUDIO
    TITLE "0:"
    INDEX 01 08:20:26
  TRACK 396 AUDIO
    TITLE "29:cjc023_3393"
    INDEX 01 08:20:73
  TRACK 397 AUDIO
    TITLE "0:"
    INDEX 01 08:22:34
  TRACK 398 AUDIO
    TITLE "30:cjc023_3394"
    INDEX 01 08:22:60
  TRACK 399 AUDIO
    TITLE "0:"
    INDEX 01 08:24:43
  TRACK 400 AUDIO
    TITLE "31:cjc023_3395"
    INDEX 01 08:24:65
  TRACK 401 AUDIO
    TITLE "0:"
    INDEX 01 08:26:46
  TRACK 402 AUDIO
    TITLE "28:cjc023_3396"
    INDEX 01 08:27:43
  TRACK 403 AUDIO
    TITLE "0:"
    INDEX 01 08:28:59
  TRACK 404 AUDIO
    TITLE "29:cjc023_3397"
    INDEX 01 08:29:38
  TRACK 405 AUDIO
    TITLE "0:"
    INDEX 01 08:30:67
  TRACK 406 AUDIO
    TITLE "30:cjc023_3398"
    INDEX 01 08:31:22
  TRACK 407 AUDIO
    TITLE "0:"
    INDEX 01 08:33:07
  TRACK 408 AUDIO
    TITLE "31:cjc023_3399"
    INDEX 01 08:33:38
  TRACK 409 AUDIO
    TITLE "0:"
    INDEX 01 08:35:23
  TRACK 410 AUDIO
    TITLE "28:cjc023_3400"
    INDEX 01 08:36:29
  TRACK 411 AUDIO
    TITLE "0:"
    INDEX 01 08:37:46
  TRACK 412 AUDIO
    TITLE "29:cjc023_3401"
    INDEX 01 08:38:16
  TRACK 413 AUDIO
    TITLE "0:"
    INDEX 01 08:41:16
  TRACK 414 AUDIO
    TITLE "30:cjc023_3402"
    INDEX 01 08:41:40
  TRACK 415 AUDIO
    TITLE "0:"
    INDEX 01 08:43:70
  TRACK 416 AUDIO
    TITLE "31:cjc023_3403"
    INDEX 01 08:44:18
  TRACK 417 AUDIO
    TITLE "0:"
    INDEX 01 08:46:51
  TRACK 418 AUDIO
    TITLE "28:cjc023_3404"
    INDEX 01 08:47:46
  TRACK 419 AUDIO
    TITLE "0:"
    INDEX 01 08:48:46
  TRACK 420 AUDIO
    TITLE "29:cjc023_3405"
    INDEX 01 08:49:20
  TRACK 421 AUDIO
    TITLE "0:"
    INDEX 01 08:51:15
  TRACK 422 AUDIO
    TITLE "30:cjc023_3406"
    INDEX 01 08:51:36
  TRACK 423 AUDIO
    TITLE "0:"
    INDEX 01 08:53:08
  TRACK 424 AUDIO
    TITLE "31:cjc023_3407"
    INDEX 01 08:53:31
  TRACK 425 AUDIO
    TITLE "0:"
    INDEX 01 08:55:03
  TRACK 426 AUDIO
    TITLE "28:cjc023_3408"
    INDEX 01 08:56:02
  TRACK 427 AUDIO
    TITLE "0:"
    INDEX 01 08:56:74
  TRACK 428 AUDIO
    TITLE "29:cjc023_3409"
    INDEX 01 08:57:48
  TRACK 429 AUDIO
    TITLE "0:"
    INDEX 01 08:59:38
  TRACK 430 AUDIO
    TITLE "30:cjc023_3410"
    INDEX 01 08:59:57
  TRACK 431 AUDIO
    TITLE "0:"
    INDEX 01 09:01:40
  TRACK 432 AUDIO
    TITLE "31:cjc023_3411"
    INDEX 01 09:01:62
  TRACK 433 AUDIO
    TITLE "0:"
    INDEX 01 09:03:47
  TRACK 434 AUDIO
    TITLE "28:cjc023_3412"
    INDEX 01 09:04:43
  TRACK 435 AUDIO
    TITLE "0:"
    INDEX 01 09:05:52
  TRACK 436 AUDIO
    TITLE "29:cjc023_3413"
    INDEX 01 09:06:26
  TRACK 437 AUDIO
    TITLE "0:"
    INDEX 01 09:09:61
  TRACK 438 AUDIO
    TITLE "30:cjc023_3414"
    INDEX 01 09:10:12
  TRACK 439 AUDIO
    TITLE "0:"
    INDEX 01 09:12:40
  TRACK 440 AUDIO
    TITLE "31:cjc023_3415"
    INDEX 01 09:12:64
  TRACK 441 AUDIO
    TITLE "0:"
    INDEX 01 09:15:17
  TRACK 442 AUDIO
    TITLE "28:cjc023_3416"
    INDEX 01 09:16:12
  TRACK 443 AUDIO
    TITLE "0:"
    INDEX 01 09:17:37
  TRACK 444 AUDIO
    TITLE "29:cjc023_3417"
    INDEX 01 09:18:09
  TRACK 445 AUDIO
    TITLE "0:"
    INDEX 01 09:20:28
  TRACK 446 AUDIO
    TITLE "30:cjc023_3418"
    INDEX 01 09:20:49
  TRACK 447 AUDIO
    TITLE "0:"
    INDEX 01 09:23:22
  TRACK 448 AUDIO
    TITLE "31:cjc023_3419"
    INDEX 01 09:23:48
  TRACK 449 AUDIO
    TITLE "0:"
    INDEX 01 09:26:23
  TRACK 450 AUDIO
    TITLE "28:cjc023_3420"
    INDEX 01 09:27:20
  TRACK 451 AUDIO
    TITLE "0:"
    INDEX 01 09:28:25
  TRACK 452 AUDIO
    TITLE "29:cjc023_3421"
    INDEX 01 09:29:01
  TRACK 453 AUDIO
    TITLE "0:"
    INDEX 01 09:30:73
  TRACK 454 AUDIO
    TITLE "30:cjc023_3422"
    INDEX 01 09:31:20
  TRACK 455 AUDIO
    TITLE "0:"
    INDEX 01 09:33:07
  TRACK 456 AUDIO
    TITLE "31:cjc023_3423"
    INDEX 01 09:33:31
  TRACK 457 AUDIO
    TITLE "0:"
    INDEX 01 09:35:22
  TRACK 458 AUDIO
    TITLE "28:cjc023_3424"
    INDEX 01 09:36:21
  TRACK 459 AUDIO
    TITLE "0:"
    INDEX 01 09:37:38
  TRACK 460 AUDIO
    TITLE "29:cjc023_3425"
    INDEX 01 09:38:10
  TRACK 461 AUDIO
    TITLE "0:"
    INDEX 01 09:40:05
  TRACK 462 AUDIO
    TITLE "30:cjc023_3426"
    INDEX 01 09:40:29
  TRACK 463 AUDIO
    TITLE "0:"
    INDEX 01 09:42:53
  TRACK 464 AUDIO
    TITLE "31:cjc023_3427"
    INDEX 01 09:43:00
  TRACK 465 AUDIO
    TITLE "0:"
    INDEX 01 09:45:26
  TRACK 466 AUDIO
    TITLE "28:cjc023_3428"
    INDEX 01 09:46:19
  TRACK 467 AUDIO
    TITLE "0:"
    INDEX 01 09:47:19
  TRACK 468 AUDIO
    TITLE "29:cjc023_3429"
    INDEX 01 09:47:68
  TRACK 469 AUDIO
    TITLE "0:"
    INDEX 01 09:49:47
  TRACK 470 AUDIO
    TITLE "30:cjc023_3430"
    INDEX 01 09:49:71
  TRACK 471 AUDIO
    TITLE "0:"
    INDEX 01 09:51:40
  TRACK 472 AUDIO
    TITLE "31:cjc023_3431"
    INDEX 01 09:51:66
  TRACK 473 AUDIO
    TITLE "0:"
    INDEX 01 09:53:37
  TRACK 474 AUDIO
    TITLE "28:cjc023_3432"
    INDEX 01 09:54:35
  TRACK 475 AUDIO
    TITLE "0:"
    INDEX 01 09:55:50
  TRACK 476 AUDIO
    TITLE "29:cjc023_3433"
    INDEX 01 09:56:20
  TRACK 477 AUDIO
    TITLE "0:"
    INDEX 01 09:58:13
  TRACK 478 AUDIO
    TITLE "30:cjc023_3434"
    INDEX 01 09:58:34
  TRACK 479 AUDIO
    TITLE "0:"
    INDEX 01 10:00:14
  TRACK 480 AUDIO
    TITLE "31:cjc023_3435"
    INDEX 01 10:00:35
  TRACK 481 AUDIO
    TITLE "0:"
    INDEX 01 10:02:15
  TRACK 482 AUDIO
    TITLE "28:cjc023_3436"
    INDEX 01 10:03:10
  TRACK 483 AUDIO
    TITLE "0:"
    INDEX 01 10:04:13
  TRACK 484 AUDIO
    TITLE "29:cjc023_3437"
    INDEX 01 10:04:64
  TRACK 485 AUDIO
    TITLE "0:"
    INDEX 01 10:06:59
  TRACK 486 AUDIO
    TITLE "30:cjc023_3438"
    INDEX 01 10:07:06
  TRACK 487 AUDIO
    TITLE "0:"
    INDEX 01 10:09:05
  TRACK 488 AUDIO
    TITLE "31:cjc023_3439"
    INDEX 01 10:09:28
  TRACK 489 AUDIO
    TITLE "0:"
    INDEX 01 10:11:25
  TRACK 490 AUDIO
    TITLE "28:cjc023_3440"
    INDEX 01 10:12:25
  TRACK 491 AUDIO
    TITLE "0:"
    INDEX 01 10:13:48
  TRACK 492 AUDIO
    TITLE "29:cjc023_3441"
    INDEX 01 10:14:18
  TRACK 493 AUDIO
    TITLE "0:"
    INDEX 01 10:16:09
  TRACK 494 AUDIO
    TITLE "30:cjc023_3442"
    INDEX 01 10:16:34
  TRACK 495 AUDIO
    TITLE "0:"
    INDEX 01 10:18:31
  TRACK 496 AUDIO
    TITLE "31:cjc023_3443"
    INDEX 01 10:18:55
  TRACK 497 AUDIO
    TITLE "0:"
    INDEX 01 10:20:54
  TRACK 498 AUDIO
    TITLE "28:cjc023_3444"
    INDEX 01 10:21:51
  TRACK 499 AUDIO
    TITLE "0:"
    INDEX 01 10:22:64
  TRACK 500 AUDIO
    TITLE "29:cjc023_3445"
    INDEX 01 10:23:38
  TRACK 501 AUDIO
    TITLE "0:"
    INDEX 01 10:24:67
  TRACK 502 AUDIO
    TITLE "30:cjc023_3446"
    INDEX 01 10:25:16
  TRACK 503 AUDIO
    TITLE "0:"
    INDEX 01 10:27:11
  TRACK 504 AUDIO
    TITLE "31:cjc023_3447"
    INDEX 01 10:27:34
  TRACK 505 AUDIO
    TITLE "0:"
    INDEX 01 10:29:29
  TRACK 506 AUDIO
    TITLE "28:cjc023_3448"
    INDEX 01 10:30:25
  TRACK 507 AUDIO
    TITLE "0:"
    INDEX 01 10:31:48
  TRACK 508 AUDIO
    TITLE "29:cjc023_3449"
    INDEX 01 10:32:20
  TRACK 509 AUDIO
    TITLE "0:"
    INDEX 01 10:34:44
  TRACK 510 AUDIO
    TITLE "30:cjc023_3450"
    INDEX 01 10:34:66
  TRACK 511 AUDIO
    TITLE "0:"
    INDEX 01 10:37:07
  TRACK 512 AUDIO
    TITLE "31:cjc023_3451"
    INDEX 01 10:37:33
  TRACK 513 AUDIO
    TITLE "0:"
    INDEX 01 10:39:49
  TRACK 514 AUDIO
    TITLE "28:cjc023_3452"
    INDEX 01 10:40:50
  TRACK 515 AUDIO
    TITLE "0:"
    INDEX 01 10:41:60
  TRACK 516 AUDIO
    TITLE "29:cjc023_3453"
    INDEX 01 10:42:28
  TRACK 517 AUDIO
    TITLE "0:"
    INDEX 01 10:44:31
  TRACK 518 AUDIO
    TITLE "30:cjc023_3454"
    INDEX 01 10:44:52
  TRACK 519 AUDIO
    TITLE "0:"
    INDEX 01 10:46:37
  TRACK 520 AUDIO
    TITLE "31:cjc023_3455"
    INDEX 01 10:46:63
  TRACK 521 AUDIO
    TITLE "0:"
    INDEX 01 10:48:50
  TRACK 522 AUDIO
    TITLE "28:cjc023_3456"
    INDEX 01 10:49:47
  TRACK 523 AUDIO
    TITLE "0:"
    INDEX 01 10:51:01
  TRACK 524 AUDIO
    TITLE "29:cjc023_3457"
    INDEX 01 10:51:48
  TRACK 525 AUDIO
    TITLE "0:"
    INDEX 01 10:53:49
  TRACK 526 AUDIO
    TITLE "30:cjc023_3458"
    INDEX 01 10:53:73
  TRACK 527 AUDIO
    TITLE "0:"
    INDEX 01 10:56:02
  TRACK 528 AUDIO
    TITLE "31:cjc023_3459"
    INDEX 01 10:56:26
  TRACK 529 AUDIO
    TITLE "0:"
    INDEX 01 10:58:31
  TRACK 530 AUDIO
    TITLE "28:cjc023_3460"
    INDEX 01 10:59:28
  TRACK 531 AUDIO
    TITLE "0:"
    INDEX 01 11:00:41
  TRACK 532 AUDIO
    TITLE "29:cjc023_3461"
    INDEX 01 11:01:13
  TRACK 533 AUDIO
    TITLE "0:"
    INDEX 01 11:02:70
  TRACK 534 AUDIO
    TITLE "30:cjc023_3462"
    INDEX 01 11:03:18
  TRACK 535 AUDIO
    TITLE "0:"
    INDEX 01 11:05:05
  TRACK 536 AUDIO
    TITLE "31:cjc023_3463"
    INDEX 01 11:05:25
  TRACK 537 AUDIO
    TITLE "0:"
    INDEX 01 11:07:10
  TRACK 538 AUDIO
    TITLE "28:cjc023_3464"
    INDEX 01 11:08:08
  TRACK 539 AUDIO
    TITLE "0:"
    INDEX 01 11:09:38
  TRACK 540 AUDIO
    TITLE "29:cjc023_3465"
    INDEX 01 11:10:10
  TRACK 541 AUDIO
    TITLE "0:"
    INDEX 01 11:13:44
  TRACK 542 AUDIO
    TITLE "30:cjc023_3466"
    INDEX 01 11:13:66
  TRACK 543 AUDIO
    TITLE "0:"
    INDEX 01 11:16:58
  TRACK 544 AUDIO
    TITLE "31:cjc023_3467"
    INDEX 01 11:17:05
  TRACK 545 AUDIO
    TITLE "0:"
    INDEX 01 11:19:70
  TRACK 546 AUDIO
    TITLE "28:cjc023_3468"
    INDEX 01 11:20:70
  TRACK 547 AUDIO
    TITLE "0:"
    INDEX 01 11:22:18
  TRACK 548 AUDIO
    TITLE "29:cjc023_3469"
    INDEX 01 11:22:65
  TRACK 549 AUDIO
    TITLE "0:"
    INDEX 01 11:25:14
  TRACK 550 AUDIO
    TITLE "30:cjc023_3470"
    INDEX 01 11:25:35
  TRACK 551 AUDIO
    TITLE "0:"
    INDEX 01 11:28:02
  TRACK 552 AUDIO
    TITLE "31:cjc023_3471"
    INDEX 01 11:28:26
  TRACK 553 AUDIO
    TITLE "0:"
    INDEX 01 11:30:64
  TRACK 554 AUDIO
    TITLE "28:cjc023_3472"
    INDEX 01 11:31:65
  TRACK 555 AUDIO
    TITLE "0:"
    INDEX 01 11:33:02
  TRACK 556 AUDIO
    TITLE "29:cjc023_3473"
    INDEX 01 11:33:45
  TRACK 557 AUDIO
    TITLE "0:"
    INDEX 01 11:34:66
  TRACK 558 AUDIO
    TITLE "30:cjc023_3474"
    INDEX 01 11:35:16
  TRACK 559 AUDIO
    TITLE "0:"
    INDEX 01 11:36:67
  TRACK 560 AUDIO
    TITLE "31:cjc023_3475"
    INDEX 01 11:37:13
  TRACK 561 AUDIO
    TITLE "0:"
    INDEX 01 11:38:64
  TRACK 562 AUDIO
    TITLE "28:cjc023_3476"
    INDEX 01 11:39:61
  TRACK 563 AUDIO
    TITLE "0:"
    INDEX 01 11:41:11
  TRACK 564 AUDIO
    TITLE "29:cjc023_3477"
    INDEX 01 11:41:60
  TRACK 565 AUDIO
    TITLE "0:"
    INDEX 01 11:45:73
  TRACK 566 AUDIO
    TITLE "30:cjc023_3478"
    INDEX 01 11:46:20
  TRACK 567 AUDIO
    TITLE "0:"
    INDEX 01 11:49:56
  TRACK 568 AUDIO
    TITLE "31:cjc023_3479"
    INDEX 01 11:50:02
  TRACK 569 AUDIO
    TITLE "0:"
    INDEX 01 11:53:40
  TRACK 570 AUDIO
    TITLE "28:cjc023_3480"
    INDEX 01 11:54:35
  TRACK 571 AUDIO
    TITLE "0:"
    INDEX 01 11:55:58
  TRACK 572 AUDIO
    TITLE "29:cjc023_3481"
    INDEX 01 11:56:30
  TRACK 573 AUDIO
    TITLE "0:"
    INDEX 01 12:00:10
  TRACK 574 AUDIO
    TITLE "30:cjc023_3482"
    INDEX 01 12:00:44
  TRACK 575 AUDIO
    TITLE "0:"
    INDEX 01 12:03:46
  TRACK 576 AUDIO
    TITLE "31:cjc023_3483"
    INDEX 01 12:03:67
  TRACK 577 AUDIO
    TITLE "0:"
    INDEX 01 12:06:72
  TRACK 578 AUDIO
    TITLE "28:cjc023_3484"
    INDEX 01 12:07:67
  TRACK 579 AUDIO
    TITLE "0:"
    INDEX 01 12:09:01
  TRACK 580 AUDIO
    TITLE "29:cjc023_3485"
    INDEX 01 12:09:48
  TRACK 581 AUDIO
    TITLE "0:"
    INDEX 01 12:12:12
  TRACK 582 AUDIO
    TITLE "30:cjc023_3486"
    INDEX 01 12:12:33
  TRACK 583 AUDIO
    TITLE "0:"
    INDEX 01 12:14:40
  TRACK 584 AUDIO
    TITLE "31:cjc023_3487"
    INDEX 01 12:14:59
  TRACK 585 AUDIO
    TITLE "0:"
    INDEX 01 12:16:64
  TRACK 586 AUDIO
    TITLE "28:cjc023_3488"
    INDEX 01 12:17:64
  TRACK 587 AUDIO
    TITLE "0:"
    INDEX 01 12:18:73
  TRACK 588 AUDIO
    TITLE "29:cjc023_3489"
    INDEX 01 12:19:53
  TRACK 589 AUDIO
    TITLE "0:"
    INDEX 01 12:22:18
  TRACK 590 AUDIO
    TITLE "30:cjc023_3490"
    INDEX 01 12:22:39
  TRACK 591 AUDIO
    TITLE "0:"
    INDEX 01 12:25:14
  TRACK 592 AUDIO
    TITLE "31:cjc023_3491"
    INDEX 01 12:25:36
  TRACK 593 AUDIO
    TITLE "0:"
    INDEX 01 12:28:09
  TRACK 594 AUDIO
    TITLE "28:cjc023_3492"
    INDEX 01 12:29:06
  TRACK 595 AUDIO
    TITLE "0:"
    INDEX 01 12:30:31
  TRACK 596 AUDIO
    TITLE "29:cjc023_3493"
    INDEX 01 12:31:09
  TRACK 597 AUDIO
    TITLE "0:"
    INDEX 01 12:33:12
  TRACK 598 AUDIO
    TITLE "30:cjc023_3494"
    INDEX 01 12:33:33
  TRACK 599 AUDIO
    TITLE "0:"
    INDEX 01 12:35:40
  TRACK 600 AUDIO
    TITLE "31:cjc023_3495"
    INDEX 01 12:35:60
  TRACK 601 AUDIO
    TITLE "0:"
    INDEX 01 12:37:68
  TRACK 602 AUDIO
    TITLE "28:cjc023_3496"
    INDEX 01 12:38:62
  TRACK 603 AUDIO
    TITLE "0:"
    INDEX 01 12:40:04
  TRACK 604 AUDIO
    TITLE "29:cjc023_3497"
    INDEX 01 12:40:51
  TRACK 605 AUDIO
    TITLE "0:"
    INDEX 01 12:42:28
  TRACK 606 AUDIO
    TITLE "30:cjc023_3498"
    INDEX 01 12:42:50
  TRACK 607 AUDIO
    TITLE "0:"
    INDEX 01 12:44:35
  TRACK 608 AUDIO
    TITLE "31:cjc023_3499"
    INDEX 01 12:44:57
  TRACK 609 AUDIO
    TITLE "0:"
    INDEX 01 12:46:40
  TRACK 610 AUDIO
    TITLE "28:cjc023_3500"
    INDEX 01 12:47:35
  TRACK 611 AUDIO
    TITLE "0:"
    INDEX 01 12:48:35
  TRACK 612 AUDIO
    TITLE "29:cjc023_3501"
    INDEX 01 12:49:09
  TRACK 613 AUDIO
    TITLE "0:"
    INDEX 01 12:51:14
  TRACK 614 AUDIO
    TITLE "30:cjc023_3502"
    INDEX 01 12:51:35
  TRACK 615 AUDIO
    TITLE "0:"
    INDEX 01 12:52:68
  TRACK 616 AUDIO
    TITLE "31:cjc023_3503"
    INDEX 01 12:53:12
  TRACK 617 AUDIO
    TITLE "0:"
    INDEX 01 12:54:43
  TRACK 618 AUDIO
    TITLE "28:cjc023_3504"
    INDEX 01 12:55:41
  TRACK 619 AUDIO
    TITLE "0:"
    INDEX 01 12:56:58
  TRACK 620 AUDIO
    TITLE "29:cjc023_3505"
    INDEX 01 12:57:28
  TRACK 621 AUDIO
    TITLE "0:"
    INDEX 01 13:00:12
  TRACK 622 AUDIO
    TITLE "30:cjc023_3506"
    INDEX 01 13:00:36
  TRACK 623 AUDIO
    TITLE "0:"
    INDEX 01 13:02:47
  TRACK 624 AUDIO
    TITLE "31:cjc023_3507"
    INDEX 01 13:02:64
  TRACK 625 AUDIO
    TITLE "0:"
    INDEX 01 13:05:02
  TRACK 626 AUDIO
    TITLE "28:cjc023_3508"
    INDEX 01 13:05:70
  TRACK 627 AUDIO
    TITLE "0:"
    INDEX 01 13:07:28
  TRACK 628 AUDIO
    TITLE "29:cjc023_3509"
    INDEX 01 13:08:00
  TRACK 629 AUDIO
    TITLE "0:"
    INDEX 01 13:09:55
  TRACK 630 AUDIO
    TITLE "30:cjc023_3510"
    INDEX 01 13:10:03
  TRACK 631 AUDIO
    TITLE "0:"
    INDEX 01 13:11:67
  TRACK 632 AUDIO
    TITLE "31:cjc023_3511"
    INDEX 01 13:12:16
  TRACK 633 AUDIO
    TITLE "0:"
    INDEX 01 13:14:05
  TRACK 634 AUDIO
    TITLE "28:cjc023_3512"
    INDEX 01 13:15:02
  TRACK 635 AUDIO
    TITLE "0:"
    INDEX 01 13:16:17
  TRACK 636 AUDIO
    TITLE "29:cjc023_3513"
    INDEX 01 13:16:62
  TRACK 637 AUDIO
    TITLE "0:"
    INDEX 01 13:19:73
  TRACK 638 AUDIO
    TITLE "30:cjc023_3514"
    INDEX 01 13:20:21
  TRACK 639 AUDIO
    TITLE "0:"
    INDEX 01 13:23:14
  TRACK 640 AUDIO
    TITLE "31:cjc023_3515"
    INDEX 01 13:23:37
  TRACK 641 AUDIO
    TITLE "0:"
    INDEX 01 13:26:31
  TRACK 642 AUDIO
    TITLE "28:cjc023_3516"
    INDEX 01 13:27:31
  TRACK 643 AUDIO
    TITLE "0:"
    INDEX 01 13:28:38
  TRACK 644 AUDIO
    TITLE "29:cjc023_3517"
    INDEX 01 13:29:10
  TRACK 645 AUDIO
    TITLE "0:"
    INDEX 01 13:30:63
  TRACK 646 AUDIO
    TITLE "30:cjc023_3518"
    INDEX 01 13:31:11
  TRACK 647 AUDIO
    TITLE "0:"
    INDEX 01 13:32:67
  TRACK 648 AUDIO
    TITLE "31:cjc023_3519"
    INDEX 01 13:33:16
  TRACK 649 AUDIO
    TITLE "0:"
    INDEX 01 13:34:74
  TRACK 650 AUDIO
    TITLE "28:cjc023_3520"
    INDEX 01 13:35:70
  TRACK 651 AUDIO
    TITLE "0:"
    INDEX 01 13:37:25
  TRACK 652 AUDIO
    TITLE "29:cjc023_3521"
    INDEX 01 13:37:74
  TRACK 653 AUDIO
    TITLE "0:"
    INDEX 01 13:40:04
  TRACK 654 AUDIO
    TITLE "30:cjc023_3522"
    INDEX 01 13:40:28
  TRACK 655 AUDIO
    TITLE "0:"
    INDEX 01 13:42:30
  TRACK 656 AUDIO
    TITLE "31:cjc023_3523"
    INDEX 01 13:42:52
  TRACK 657 AUDIO
    TITLE "0:"
    INDEX 01 13:44:57
  TRACK 658 AUDIO
    TITLE "28:cjc023_3524"
    INDEX 01 13:45:52
  TRACK 659 AUDIO
    TITLE "0:"
    INDEX 01 13:46:62
  TRACK 660 AUDIO
    TITLE "29:cjc023_3525"
    INDEX 01 13:47:34
  TRACK 661 AUDIO
    TITLE "0:"
    INDEX 01 13:49:17
  TRACK 662 AUDIO
    TITLE "30:cjc023_3526"
    INDEX 01 13:49:38
  TRACK 663 AUDIO
    TITLE "0:"
    INDEX 01 13:51:26
  TRACK 664 AUDIO
    TITLE "31:cjc023_3527"
    INDEX 01 13:51:45
  TRACK 665 AUDIO
    TITLE "0:"
    INDEX 01 13:53:28
  TRACK 666 AUDIO
    TITLE "28:cjc023_3528"
    INDEX 01 13:54:30
  TRACK 667 AUDIO
    TITLE "0:"
    INDEX 01 13:55:45
  TRACK 668 AUDIO
    TITLE "29:cjc023_3529"
    INDEX 01 13:56:13
  TRACK 669 AUDIO
    TITLE "0:"
    INDEX 01 13:57:52
  TRACK 670 AUDIO
    TITLE "30:cjc023_3530"
    INDEX 01 13:57:73
  TRACK 671 AUDIO
    TITLE "0:"
    INDEX 01 13:59:64
  TRACK 672 AUDIO
    TITLE "31:cjc023_3531"
    INDEX 01 14:00:15
  TRACK 673 AUDIO
    TITLE "0:"
    INDEX 01 14:02:08
  TRACK 674 AUDIO
    TITLE "28:cjc023_3532"
    INDEX 01 14:03:07
  TRACK 675 AUDIO
    TITLE "0:"
    INDEX 01 14:04:22
  TRACK 676 AUDIO
    TITLE "29:cjc023_3533"
    INDEX 01 14:04:67
  TRACK 677 AUDIO
    TITLE "0:"
    INDEX 01 14:06:68
  TRACK 678 AUDIO
    TITLE "30:cjc023_3534"
    INDEX 01 14:07:17
  TRACK 679 AUDIO
    TITLE "0:"
    INDEX 01 14:09:51
  TRACK 680 AUDIO
    TITLE "31:cjc023_3535"
    INDEX 01 14:09:74
  TRACK 681 AUDIO
    TITLE "0:"
    INDEX 01 14:12:34
  TRACK 682 AUDIO
    TITLE "28:cjc023_3536"
    INDEX 01 14:13:31
  TRACK 683 AUDIO
    TITLE "0:"
    INDEX 01 14:14:40
  TRACK 684 AUDIO
    TITLE "29:cjc023_3537"
    INDEX 01 14:15:12
  TRACK 685 AUDIO
    TITLE "0:"
    INDEX 01 14:17:58
  TRACK 686 AUDIO
    TITLE "30:cjc023_3538"
    INDEX 01 14:18:03
  TRACK 687 AUDIO
    TITLE "0:"
    INDEX 01 14:20:55
  TRACK 688 AUDIO
    TITLE "31:cjc023_3539"
    INDEX 01 14:20:72
  TRACK 689 AUDIO
    TITLE "0:"
    INDEX 01 14:23:47
  TRACK 690 AUDIO
    TITLE "28:cjc023_3540"
    INDEX 01 14:24:45
  TRACK 691 AUDIO
    TITLE "0:"
    INDEX 01 14:26:14
  TRACK 692 AUDIO
    TITLE "29:cjc023_3541"
    INDEX 01 14:26:61
  TRACK 693 AUDIO
    TITLE "0:"
    INDEX 01 14:30:10
  TRACK 694 AUDIO
    TITLE "30:cjc023_3542"
    INDEX 01 14:30:33
  TRACK 695 AUDIO
    TITLE "0:"
    INDEX 01 14:33:36
  TRACK 696 AUDIO
    TITLE "31:cjc023_3543"
    INDEX 01 14:33:55
  TRACK 697 AUDIO
    TITLE "0:"
    INDEX 01 14:36:58
  TRACK 698 AUDIO
    TITLE "28:cjc023_3544"
    INDEX 01 14:37:53
  TRACK 699 AUDIO
    TITLE "0:"
    INDEX 01 14:38:64
  TRACK 700 AUDIO
    TITLE "29:cjc023_3545"
    INDEX 01 14:39:38
  TRACK 701 AUDIO
    TITLE "0:"
    INDEX 01 14:42:25
  TRACK 702 AUDIO
    TITLE "30:cjc023_3546"
    INDEX 01 14:42:48
  TRACK 703 AUDIO
    TITLE "0:"
    INDEX 01 14:44:71
  TRACK 704 AUDIO
    TITLE "31:cjc023_3547"
    INDEX 01 14:45:23
  TRACK 705 AUDIO
    TITLE "0:"
    INDEX 01 14:47:44
  TRACK 706 AUDIO
    TITLE "28:cjc023_3548"
    INDEX 01 14:48:43
  TRACK 707 AUDIO
    TITLE "0:"
    INDEX 01 14:49:62
  TRACK 708 AUDIO
    TITLE "29:cjc023_3549"
    INDEX 01 14:50:34
  TRACK 709 AUDIO
    TITLE "0:"
    INDEX 01 14:53:52
  TRACK 710 AUDIO
    TITLE "30:cjc023_3550"
    INDEX 01 14:53:74
  TRACK 711 AUDIO
    TITLE "0:"
    INDEX 01 14:56:58
  TRACK 712 AUDIO
    TITLE "31:cjc023_3551"
    INDEX 01 14:57:05
  TRACK 713 AUDIO
    TITLE "0:"
    INDEX 01 14:59:64
  TRACK 714 AUDIO
    TITLE "28:cjc023_3552"
    INDEX 01 15:00:64
  TRACK 715 AUDIO
    TITLE "0:"
    INDEX 01 15:02:06
  TRACK 716 AUDIO
    TITLE "29:cjc023_3553"
    INDEX 01 15:02:53
  TRACK 717 AUDIO
    TITLE "0:"
    INDEX 01 15:05:24
  TRACK 718 AUDIO
    TITLE "30:cjc023_3554"
    INDEX 01 15:05:45
  TRACK 719 AUDIO
    TITLE "0:"
    INDEX 01 15:07:25
  TRACK 720 AUDIO
    TITLE "31:cjc023_3555"
    INDEX 01 15:07:48
  TRACK 721 AUDIO
    TITLE "0:"
    INDEX 01 15:09:28
  TRACK 722 AUDIO
    TITLE "28:cjc023_3556"
    INDEX 01 15:10:25
  TRACK 723 AUDIO
    TITLE "0:"
    INDEX 01 15:11:32
  TRACK 724 AUDIO
    TITLE "29:cjc023_3557"
    INDEX 01 15:12:02
  TRACK 725 AUDIO
    TITLE "0:"
    INDEX 01 15:14:35
  TRACK 726 AUDIO
    TITLE "30:cjc023_3558"
    INDEX 01 15:14:56
  TRACK 727 AUDIO
    TITLE "0:"
    INDEX 01 15:16:30
  TRACK 728 AUDIO
    TITLE "31:cjc023_3559"
    INDEX 01 15:16:51
  TRACK 729 AUDIO
    TITLE "0:"
    INDEX 01 15:18:25
  TRACK 730 AUDIO
    TITLE "28:cjc023_3560"
    INDEX 01 15:19:20
  TRACK 731 AUDIO
    TITLE "0:"
    INDEX 01 15:20:35
  TRACK 732 AUDIO
    TITLE "29:cjc023_3561"
    INDEX 01 15:21:09
  TRACK 733 AUDIO
    TITLE "0:"
    INDEX 01 15:23:43
  TRACK 734 AUDIO
    TITLE "30:cjc023_3562"
    INDEX 01 15:23:65
  TRACK 735 AUDIO
    TITLE "0:"
    INDEX 01 15:26:16
  TRACK 736 AUDIO
    TITLE "31:cjc023_3563"
    INDEX 01 15:26:38
  TRACK 737 AUDIO
    TITLE "0:"
    INDEX 01 15:28:64
  TRACK 738 AUDIO
    TITLE "28:cjc023_3564"
    INDEX 01 15:29:60
  TRACK 739 AUDIO
    TITLE "0:"
    INDEX 01 15:31:00
  TRACK 740 AUDIO
    TITLE "29:cjc023_3565"
    INDEX 01 15:31:45
  TRACK 741 AUDIO
    TITLE "0:"
    INDEX 01 15:34:08
  TRACK 742 AUDIO
    TITLE "30:cjc023_3566"
    INDEX 01 15:34:30
  TRACK 743 AUDIO
    TITLE "0:"
    INDEX 01 15:37:10
  TRACK 744 AUDIO
    TITLE "31:cjc023_3567"
    INDEX 01 15:37:32
  TRACK 745 AUDIO
    TITLE "0:"
    INDEX 01 15:40:14
  TRACK 746 AUDIO
    TITLE "28:cjc023_3568"
    INDEX 01 15:41:14
  TRACK 747 AUDIO
    TITLE "0:"
    INDEX 01 15:42:07
  TRACK 748 AUDIO
    TITLE "29:cjc023_3569"
    INDEX 01 15:42:58
  TRACK 749 AUDIO
    TITLE "0:"
    INDEX 01 15:45:41
  TRACK 750 AUDIO
    TITLE "30:cjc023_3570"
    INDEX 01 15:45:63
  TRACK 751 AUDIO
    TITLE "0:"
    INDEX 01 15:48:36
  TRACK 752 AUDIO
    TITLE "31:cjc023_3571"
    INDEX 01 15:48:55
  TRACK 753 AUDIO
    TITLE "0:"
    INDEX 01 15:51:28
  TRACK 754 AUDIO
    TITLE "28:cjc023_3572"
    INDEX 01 15:52:24
  TRACK 755 AUDIO
    TITLE "0:"
    INDEX 01 15:53:39
  TRACK 756 AUDIO
    TITLE "29:cjc023_3573"
    INDEX 01 15:54:09
  TRACK 757 AUDIO
    TITLE "0:"
    INDEX 01 15:56:49
  TRACK 758 AUDIO
    TITLE "30:cjc023_3574"
    INDEX 01 15:56:70
  TRACK 759 AUDIO
    TITLE "0:"
    INDEX 01 15:58:55
  TRACK 760 AUDIO
    TITLE "31:cjc023_3575"
    INDEX 01 15:59:02
  TRACK 761 AUDIO
    TITLE "0:"
    INDEX 01 16:00:64
  TRACK 762 AUDIO
    TITLE "28:cjc023_3576"
    INDEX 01 16:01:60
  TRACK 763 AUDIO
    TITLE "0:"
    INDEX 01 16:03:10
  TRACK 764 AUDIO
    TITLE "29:cjc023_3577"
    INDEX 01 16:03:57
  TRACK 765 AUDIO
    TITLE "0:"
    INDEX 01 16:05:38
  TRACK 766 AUDIO
    TITLE "30:cjc023_3578"
    INDEX 01 16:05:59
  TRACK 767 AUDIO
    TITLE "0:"
    INDEX 01 16:07:47
  TRACK 768 AUDIO
    TITLE "31:cjc023_3579"
    INDEX 01 16:07:68
  TRACK 769 AUDIO
    TITLE "0:"
    INDEX 01 16:09:55
  TRACK 770 AUDIO
    TITLE "28:cjc023_3580"
    INDEX 01 16:10:53
  TRACK 771 AUDIO
    TITLE "0:"
    INDEX 01 16:11:62
  TRACK 772 AUDIO
    TITLE "29:cjc023_3581"
    INDEX 01 16:12:32
  TRACK 773 AUDIO
    TITLE "0:"
    INDEX 01 16:14:17
  TRACK 774 AUDIO
    TITLE "30:cjc023_3582"
    INDEX 01 16:14:39
  TRACK 775 AUDIO
    TITLE "0:"
    INDEX 01 16:16:16
  TRACK 776 AUDIO
    TITLE "31:cjc023_3583"
    INDEX 01 16:16:40
  TRACK 777 AUDIO
    TITLE "0:"
    INDEX 01 16:18:19
  TRACK 778 AUDIO
    TITLE "28:cjc023_3584"
    INDEX 01 16:19:13
  TRACK 779 AUDIO
    TITLE "0:"
    INDEX 01 16:20:20
  TRACK 780 AUDIO
    TITLE "29:cjc023_3585"
    INDEX 01 16:20:69
  TRACK 781 AUDIO
    TITLE "0:"
    INDEX 01 16:22:34
  TRACK 782 AUDIO
    TITLE "30:cjc023_3586"
    INDEX 01 16:22:58
  TRACK 783 AUDIO
    TITLE "0:"
    INDEX 01 16:24:61
  TRACK 784 AUDIO
    TITLE "31:cjc023_3587"
    INDEX 01 16:25:07
  TRACK 785 AUDIO
    TITLE "0:"
    INDEX 01 16:27:12
  TRACK 786 AUDIO
    TITLE "28:cjc023_3588"
    INDEX 01 16:28:08
  TRACK 787 AUDIO
    TITLE "0:"
    INDEX 01 16:29:34
  TRACK 788 AUDIO
    TITLE "29:cjc023_3589"
    INDEX 01 16:30:05
  TRACK 789 AUDIO
    TITLE "0:"
    INDEX 01 16:33:28
  TRACK 790 AUDIO
    TITLE "30:cjc023_3590"
    INDEX 01 16:33:54
  TRACK 791 AUDIO
    TITLE "0:"
    INDEX 01 16:36:27
  TRACK 792 AUDIO
    TITLE "31:cjc023_3591"
    INDEX 01 16:36:48
  TRACK 793 AUDIO
    TITLE "0:"
    INDEX 01 16:39:19
  TRACK 794 AUDIO
    TITLE "28:cjc023_3592"
    INDEX 01 16:40:17
  TRACK 795 AUDIO
    TITLE "0:"
    INDEX 01 16:41:30
  TRACK 796 AUDIO
    TITLE "29:cjc023_3593"
    INDEX 01 16:42:06
  TRACK 797 AUDIO
    TITLE "0:"
    INDEX 01 16:44:65
  TRACK 798 AUDIO
    TITLE "30:cjc023_3594"
    INDEX 01 16:45:12
  TRACK 799 AUDIO
    TITLE "0:"
    INDEX 01 16:47:48
  TRACK 800 AUDIO
    TITLE "31:cjc023_3595"
    INDEX 01 16:47:68
  TRACK 801 AUDIO
    TITLE "0:"
    INDEX 01 16:50:29
